#Comment line ignore any data following # character 
#Hierarchical Translation and Rotation (.htr) file 
[Header]	
#Header keywords are followed by a single value 
FileType HTR		#Single word string
DataType HTRS		#Translation followed by rotation and scale data
FileVersion 1		#integer
NumSegments 84		#integer
NumFrames 2		#integer
DataFrameRate 30		#integer, data frame rate in this file
EulerRotationOrder ZYX
CalibrationUnits mm
RotationUnits Degrees
GlobalAxisofGravity Y
BoneLengthAxis Y
ScaleFactor 1.00
[SegmentNames&Hierarchy]
#CHILD	PARENT
MASTER GLOBAL
root MASTER
chest root
L_mid_tent01 root
R_mid_tent01 root
spine01 root
Bip01_Neck chest
L_humerus chest
R_humerus chest
weapon_bone chest
Bip01_Head Bip01_Neck
eye_left_bone Bip01_Head
eye_right_bone Bip01_Head
L_forearm L_humerus
L_front_hand L_forearm
L_weapon_bone L_forearm
L_front_hand01_01 L_front_hand
L_front_hand02_01 L_front_hand
L_front_hand03_01 L_front_hand
L_front_hand01_02 L_front_hand01_01
L_front_hand02_02 L_front_hand02_01
L_front_hand03_02 L_front_hand03_01
R_forearm R_humerus
R_front_hand R_forearm
R_weapon_bone R_forearm
R_front_hand01_01 R_front_hand
R_front_hand02_01 R_front_hand
R_front_hand03_01 R_front_hand
R_front_hand01_02 R_front_hand01_01
R_front_hand02_02 R_front_hand02_01
R_front_hand03_02 R_front_hand03_01
null_rope01_connect L_mid_tent01
Rope1_Seg01 null_rope01_connect
Rope1_Seg02 Rope1_Seg01
Rope1_Seg03 Rope1_Seg02
Rope1_Seg04 Rope1_Seg03
Rope1_Seg05 Rope1_Seg04
Rope1_Seg06 Rope1_Seg05
Rope1_Seg07 Rope1_Seg06
Rope1_Seg09 Rope1_Seg07
L_mid_hand01 Rope1_Seg09
L_mid_hand02 Rope1_Seg09
L_mid_hand03 Rope1_Seg09
null_rope02_connect R_mid_tent01
Rope2_Seg01 null_rope02_connect
Rope2_Seg02 Rope2_Seg01
Rope2_Seg03 Rope2_Seg02
Rope2_Seg04 Rope2_Seg03
Rope2_Seg05 Rope2_Seg04
Rope2_Seg06 Rope2_Seg05
Rope2_Seg07 Rope2_Seg06
Rope2_Seg09 Rope2_Seg07
R_mid_hand01 Rope2_Seg09
R_mid_hand02 Rope2_Seg09
R_mid_hand03 Rope2_Seg09
spine02 spine01
spine03 spine02
pelvis spine03
null_rope03_connect pelvis
null_rope04_connect pelvis
Rope3_Seg01 null_rope03_connect
Rope3_Seg02 Rope3_Seg01
Rope3_Seg03 Rope3_Seg02
Rope3_Seg04 Rope3_Seg03
Rope3_Seg05 Rope3_Seg04
Rope3_Seg06 Rope3_Seg05
Rope3_Seg07 Rope3_Seg06
Rope3_Seg08 Rope3_Seg07
Rope3_Seg09 Rope3_Seg08
R_rear_hand01 Rope3_Seg09
R_rear_hand02 Rope3_Seg09
R_rear_hand03 Rope3_Seg09
Rope4_Seg01 null_rope04_connect
Rope4_Seg02 Rope4_Seg01
Rope4_Seg03 Rope4_Seg02
Rope4_Seg04 Rope4_Seg03
Rope4_Seg05 Rope4_Seg04
Rope4_Seg06 Rope4_Seg05
Rope4_Seg07 Rope4_Seg06
Rope4_Seg08 Rope4_Seg07
Rope4_Seg09 Rope4_Seg08
L_rear_hand01 Rope4_Seg09
L_rear_hand02 Rope4_Seg09
L_rear_hand03 Rope4_Seg09
[BasePosition]
#SegmentName Tx, Ty, Tz, Rx, Ry, Rz, BoneLength
MASTER 0.000000 0.000000 0.000000 -90.000000 0.000000 0.000000 10.000000 
root 0.000000 0.000000 0.000000 0.000000 0.000000 0.000000 10.000000 
chest 0.000000 0.000000 0.000000 0.000000 0.000000 0.000000 10.000000 
L_mid_tent01 0.000000 0.000000 0.000000 0.000000 0.000000 0.000000 10.000000 
R_mid_tent01 0.000000 0.000000 0.000000 0.000000 0.000000 0.000000 10.000000 
spine01 0.000000 0.000000 0.000000 0.000000 0.000000 0.000000 10.000000 
Bip01_Neck 0.000000 0.000000 0.000000 0.000000 0.000000 0.000000 10.000000 
L_humerus 0.000000 0.000000 0.000000 0.000000 0.000000 0.000000 10.000000 
R_humerus 0.000000 0.000000 0.000000 0.000000 0.000000 0.000000 10.000000 
weapon_bone 0.000000 0.000000 0.000000 0.000000 0.000000 0.000000 10.000000 
Bip01_Head 0.000000 0.000000 0.000000 0.000000 0.000000 0.000000 10.000000 
eye_left_bone 0.000000 0.000000 0.000000 0.000000 0.000000 0.000000 10.000000 
eye_right_bone 0.000000 0.000000 0.000000 0.000000 0.000000 0.000000 10.000000 
L_forearm 0.000000 0.000000 0.000000 0.000000 0.000000 0.000000 10.000000 
L_front_hand 0.000000 0.000000 0.000000 0.000000 0.000000 0.000000 10.000000 
L_weapon_bone 0.000000 0.000000 0.000000 0.000000 0.000000 0.000000 10.000000 
L_front_hand01_01 0.000000 0.000000 0.000000 0.000000 0.000000 0.000000 10.000000 
L_front_hand02_01 0.000000 0.000000 0.000000 0.000000 0.000000 0.000000 10.000000 
L_front_hand03_01 0.000000 0.000000 0.000000 0.000000 0.000000 0.000000 10.000000 
L_front_hand01_02 0.000000 0.000000 0.000000 0.000000 0.000000 0.000000 10.000000 
L_front_hand02_02 0.000000 0.000000 0.000000 0.000000 0.000000 0.000000 10.000000 
L_front_hand03_02 0.000000 0.000000 0.000000 0.000000 0.000000 0.000000 10.000000 
R_forearm 0.000000 0.000000 0.000000 0.000000 0.000000 0.000000 10.000000 
R_front_hand 0.000000 0.000000 0.000000 0.000000 0.000000 0.000000 10.000000 
R_weapon_bone 0.000000 0.000000 0.000000 0.000000 0.000000 0.000000 10.000000 
R_front_hand01_01 0.000000 0.000000 0.000000 0.000000 0.000000 0.000000 10.000000 
R_front_hand02_01 0.000000 0.000000 0.000000 0.000000 0.000000 0.000000 10.000000 
R_front_hand03_01 0.000000 0.000000 0.000000 0.000000 0.000000 0.000000 10.000000 
R_front_hand01_02 0.000000 0.000000 0.000000 0.000000 0.000000 0.000000 10.000000 
R_front_hand02_02 0.000000 0.000000 0.000000 0.000000 0.000000 0.000000 10.000000 
R_front_hand03_02 0.000000 0.000000 0.000000 0.000000 0.000000 0.000000 10.000000 
null_rope01_connect 0.000000 0.000000 0.000000 0.000000 0.000000 0.000000 10.000000 
Rope1_Seg01 0.000000 0.000000 0.000000 0.000000 0.000000 0.000000 10.000000 
Rope1_Seg02 0.000000 0.000000 0.000000 0.000000 0.000000 0.000000 10.000000 
Rope1_Seg03 0.000000 0.000000 0.000000 0.000000 0.000000 0.000000 10.000000 
Rope1_Seg04 0.000000 0.000000 0.000000 0.000000 0.000000 0.000000 10.000000 
Rope1_Seg05 0.000000 0.000000 0.000000 0.000000 0.000000 0.000000 10.000000 
Rope1_Seg06 0.000000 0.000000 0.000000 0.000000 0.000000 0.000000 10.000000 
Rope1_Seg07 0.000000 0.000000 0.000000 0.000000 0.000000 0.000000 10.000000 
Rope1_Seg09 0.000000 0.000000 0.000000 0.000000 0.000000 0.000000 10.000000 
L_mid_hand01 0.000000 0.000000 0.000000 0.000000 0.000000 0.000000 10.000000 
L_mid_hand02 0.000000 0.000000 0.000000 0.000000 0.000000 0.000000 10.000000 
L_mid_hand03 0.000000 0.000000 0.000000 0.000000 0.000000 0.000000 10.000000 
null_rope02_connect 0.000000 0.000000 0.000000 0.000000 0.000000 0.000000 10.000000 
Rope2_Seg01 0.000000 0.000000 0.000000 0.000000 0.000000 0.000000 10.000000 
Rope2_Seg02 0.000000 0.000000 0.000000 0.000000 0.000000 0.000000 10.000000 
Rope2_Seg03 0.000000 0.000000 0.000000 0.000000 0.000000 0.000000 10.000000 
Rope2_Seg04 0.000000 0.000000 0.000000 0.000000 0.000000 0.000000 10.000000 
Rope2_Seg05 0.000000 0.000000 0.000000 0.000000 0.000000 0.000000 10.000000 
Rope2_Seg06 0.000000 0.000000 0.000000 0.000000 0.000000 0.000000 10.000000 
Rope2_Seg07 0.000000 0.000000 0.000000 0.000000 0.000000 0.000000 10.000000 
Rope2_Seg09 0.000000 0.000000 0.000000 0.000000 0.000000 0.000000 10.000000 
R_mid_hand01 0.000000 0.000000 0.000000 0.000000 0.000000 0.000000 10.000000 
R_mid_hand02 0.000000 0.000000 0.000000 0.000000 0.000000 0.000000 10.000000 
R_mid_hand03 0.000000 0.000000 0.000000 0.000000 0.000000 0.000000 10.000000 
spine02 0.000000 0.000000 0.000000 0.000000 0.000000 0.000000 10.000000 
spine03 0.000000 0.000000 0.000000 0.000000 0.000000 0.000000 10.000000 
pelvis 0.000000 0.000000 0.000000 0.000000 0.000000 0.000000 10.000000 
null_rope03_connect 0.000000 0.000000 0.000000 0.000000 0.000000 0.000000 10.000000 
null_rope04_connect 0.000000 0.000000 0.000000 0.000000 0.000000 0.000000 10.000000 
Rope3_Seg01 0.000000 0.000000 0.000000 0.000000 0.000000 0.000000 10.000000 
Rope3_Seg02 0.000000 0.000000 0.000000 0.000000 0.000000 0.000000 10.000000 
Rope3_Seg03 0.000000 0.000000 0.000000 0.000000 0.000000 0.000000 10.000000 
Rope3_Seg04 0.000000 0.000000 0.000000 0.000000 0.000000 0.000000 10.000000 
Rope3_Seg05 0.000000 0.000000 0.000000 0.000000 0.000000 0.000000 10.000000 
Rope3_Seg06 0.000000 0.000000 0.000000 0.000000 0.000000 0.000000 10.000000 
Rope3_Seg07 0.000000 0.000000 0.000000 0.000000 0.000000 0.000000 10.000000 
Rope3_Seg08 0.000000 0.000000 0.000000 0.000000 0.000000 0.000000 10.000000 
Rope3_Seg09 0.000000 0.000000 0.000000 0.000000 0.000000 0.000000 10.000000 
R_rear_hand01 0.000000 0.000000 0.000000 0.000000 0.000000 0.000000 10.000000 
R_rear_hand02 0.000000 0.000000 0.000000 0.000000 0.000000 0.000000 10.000000 
R_rear_hand03 0.000000 0.000000 0.000000 0.000000 0.000000 0.000000 10.000000 
Rope4_Seg01 0.000000 0.000000 0.000000 0.000000 0.000000 0.000000 10.000000 
Rope4_Seg02 0.000000 0.000000 0.000000 0.000000 0.000000 0.000000 10.000000 
Rope4_Seg03 0.000000 0.000000 0.000000 0.000000 0.000000 0.000000 10.000000 
Rope4_Seg04 0.000000 0.000000 0.000000 0.000000 0.000000 0.000000 10.000000 
Rope4_Seg05 0.000000 0.000000 0.000000 0.000000 0.000000 0.000000 10.000000 
Rope4_Seg06 0.000000 0.000000 0.000000 0.000000 0.000000 0.000000 10.000000 
Rope4_Seg07 0.000000 0.000000 0.000000 0.000000 0.000000 0.000000 10.000000 
Rope4_Seg08 0.000000 0.000000 0.000000 0.000000 0.000000 0.000000 10.000000 
Rope4_Seg09 0.000000 0.000000 0.000000 0.000000 0.000000 0.000000 10.000000 
L_rear_hand01 0.000000 0.000000 0.000000 0.000000 0.000000 0.000000 10.000000 
L_rear_hand02 0.000000 0.000000 0.000000 0.000000 0.000000 0.000000 10.000000 
L_rear_hand03 0.000000 0.000000 0.000000 0.000000 0.000000 0.000000 10.000000 
#Beginning of Data. Separated by tabs
#Fr	Tx	Ty	Tz	Rx	Ry	Rz	SF
[MASTER]
14 -1298.589355 -2441.114258 0.000000 0.000250 0.002334 -77.747643 2765.026611
15 -1349.636841 -2647.844727 0.000000 0.000281 0.002331 -76.228058 2971.969482
[root]
14 -62.822044 4.060908 1000.991211 -94.128151 -7.683685 179.154999 1002.968872
15 -62.822155 13.492284 1005.064148 -91.972275 -7.566022 179.741333 1007.115967
[chest]
14 -84.512650 -34.090519 0.000000 19.279663 -0.745374 156.385315 91.129311
15 -84.512650 -34.090519 0.000000 18.644363 -0.744434 156.386154 91.129311
[L_mid_tent01]
14 23.228750 24.509907 -223.761200 -13.771253 28.420187 -15.117293 226.294907
15 23.228750 24.509907 -223.761200 -12.032015 16.017525 -10.740369 226.294907
[R_mid_tent01]
14 23.228794 24.509907 226.238495 -159.212387 17.598213 -12.603559 228.744751
15 23.228794 24.509907 226.238495 -160.481613 9.807809 -14.858398 228.744751
[spine01]
14 -0.361383 -0.195265 0.000000 0.001815 0.001488 11.320962 0.410763
15 -0.361383 -0.195265 0.000000 0.001815 0.001488 11.320962 0.410763
[Bip01_Neck]
14 165.484543 71.581718 0.000119 175.896118 1.177290 24.871183 180.302734
15 165.484543 71.581718 0.000119 175.896118 1.177290 24.871183 180.302734
[L_humerus]
14 -13.983130 -135.272980 -120.471481 164.464462 21.126627 -108.000763 181.680161
15 -13.983130 -135.272980 -120.471481 163.592484 24.449892 -108.062553 181.680161
[R_humerus]
14 -13.983309 -135.273102 125.287651 -166.269318 -11.610606 -103.254189 184.909012
15 -13.983309 -135.273102 125.287651 -165.924225 -15.106263 -103.085594 184.909012
[weapon_bone]
14 235.964890 -300.705902 0.000000 0.000000 -89.951546 -128.212341 382.234833
15 235.964890 -300.705902 0.000000 0.000000 -89.951546 -128.212341 382.234833
[Bip01_Head]
14 201.313705 211.516769 15.929833 15.761529 5.247709 -72.191200 292.438538
15 201.313690 211.516769 15.929842 14.542148 4.905208 -71.505630 292.438538
[eye_left_bone]
14 -24.626970 125.451866 -64.772606 0.000000 -90.000000 -99.840431 143.318359
15 -24.626970 125.451866 -64.772606 0.000000 -90.000000 -99.840431 143.318359
[eye_right_bone]
14 -24.626970 125.451866 64.327362 0.000000 -89.965736 80.156380 143.117676
15 -24.626970 125.451866 64.327362 0.000000 -89.965736 80.156380 143.117676
[L_forearm]
14 322.776093 0.000000 -0.000119 0.000357 -0.002320 -107.506004 322.776093
15 322.776093 0.000000 -0.000119 0.000357 -0.002320 -107.505997 322.776093
[L_front_hand]
14 241.149185 -0.042021 -3.300071 -179.431961 -2.195943 -5.942919 241.171753
15 241.149185 -0.042021 -3.300071 -179.431961 -2.195943 -5.942919 241.171753
[L_weapon_bone]
14 156.183838 0.000000 0.000000 0.000014 0.000007 0.000001 156.183838
15 156.183838 0.000000 0.000000 0.000014 0.000007 0.000001 156.183838
[L_front_hand01_01]
14 86.095154 20.947098 -0.655860 0.139491 -0.584553 24.181786 88.609184
15 86.095154 20.947098 -0.655860 0.139491 -0.584553 24.181791 88.609184
[L_front_hand02_01]
14 86.935165 -11.437475 24.513514 119.190460 -21.905655 -12.119137 91.046425
15 86.935165 -11.437475 24.513514 119.190460 -21.905661 -12.119137 91.046425
[L_front_hand03_01]
14 86.637497 -14.123976 -20.424902 -120.437630 20.554031 -14.327168 90.126129
15 86.637497 -14.123976 -20.424902 -120.437630 20.554037 -14.327168 90.126129
[L_front_hand01_02]
14 71.020905 -0.000179 0.000030 0.000334 -0.002323 -106.379684 71.020905
15 71.020905 -0.000179 0.000030 0.000334 -0.002323 -106.379684 71.020905
[L_front_hand02_02]
14 71.020927 -0.000119 0.000060 0.000334 -0.002323 -106.379684 71.020927
15 71.020927 -0.000119 0.000060 0.000334 -0.002323 -106.379684 71.020927
[L_front_hand03_02]
14 71.020905 -0.000060 0.000060 0.000334 -0.002323 -106.379684 71.020905
15 71.020905 -0.000060 0.000060 0.000334 -0.002323 -106.379684 71.020905
[R_forearm]
14 322.776428 -0.000060 0.000030 0.196737 0.083011 -114.368637 322.776428
15 322.776428 -0.000060 0.000030 0.196737 0.083011 -114.368637 322.776428
[R_front_hand]
14 238.847015 -0.006795 2.210259 -0.341870 1.692705 -0.151779 238.857239
15 238.847015 -0.006795 2.210259 -0.341870 1.692706 -0.151780 238.857239
[R_weapon_bone]
14 155.664093 0.002503 -0.000030 0.003487 0.001180 -90.988930 155.664078
15 155.664093 0.002503 -0.000030 0.003487 0.001180 -90.988930 155.664078
[R_front_hand01_01]
14 87.624611 14.231146 22.918642 -119.218056 -22.033409 12.303375 91.683487
15 87.624611 14.231146 22.918642 -119.218056 -22.033411 12.303375 91.683487
[R_front_hand02_01]
14 89.356956 14.367283 -19.491137 120.545532 20.947184 14.823009 92.579636
15 89.356956 14.367283 -19.491137 120.545532 20.947184 14.823009 92.579636
[R_front_hand03_01]
14 87.286232 -22.307278 -0.143439 -0.231628 -0.392922 -24.567768 90.091743
15 87.286232 -22.307278 -0.143439 -0.231628 -0.392922 -24.567772 90.091743
[R_front_hand01_02]
14 71.020905 0.000060 0.000119 0.002323 -0.000334 106.381714 71.020905
15 71.020905 0.000060 0.000119 0.002323 -0.000334 106.381714 71.020905
[R_front_hand02_02]
14 71.020844 -0.000030 -0.000119 0.002323 -0.000334 106.381714 71.020836
15 71.020844 -0.000030 -0.000119 0.002323 -0.000334 106.381714 71.020836
[R_front_hand03_02]
14 71.020905 0.000000 0.000030 0.002323 -0.000334 106.381714 71.020905
15 71.020905 0.000000 0.000030 0.002323 -0.000334 106.381714 71.020905
[null_rope01_connect]
14 328.732483 0.000000 -0.000238 106.115875 68.683929 37.160946 328.732483
15 328.732483 0.000000 -0.000238 145.784576 79.885391 73.702827 328.732483
[Rope1_Seg01]
14 -0.000017 0.000022 0.000066 19.058313 10.592296 68.461662 0.000072
15 -0.000018 0.000020 0.000071 10.133244 11.555572 71.218262 0.000076
[Rope1_Seg02]
14 139.999863 -0.000179 0.000000 12.930309 -4.096307 -1.623184 139.999863
15 139.999863 -0.000179 0.000000 20.227125 -4.890503 -4.119793 139.999863
[Rope1_Seg03]
14 139.999924 0.000060 -0.000060 13.363160 -6.228454 -0.958071 139.999924
15 139.999924 0.000060 -0.000060 19.934982 -8.034123 -2.937675 139.999924
[Rope1_Seg04]
14 139.999924 -0.000060 -0.000119 26.215843 -17.856203 -4.100933 139.999924
15 139.999924 -0.000060 -0.000119 31.825235 -21.834087 -6.899791 139.999924
[Rope1_Seg05]
14 139.999832 0.000119 -0.000060 8.919526 -18.779112 5.345367 139.999832
15 139.999832 0.000119 -0.000060 3.554396 -10.357087 5.345634 139.999832
[Rope1_Seg06]
14 139.999954 0.000119 -0.000060 -49.089458 64.392822 21.128489 139.999954
15 139.999954 0.000119 -0.000060 -51.057949 55.774193 15.185433 139.999954
[Rope1_Seg07]
14 139.999985 0.000060 0.000000 -12.398815 12.430014 37.771515 139.999985
15 139.999985 0.000060 0.000000 -15.494955 13.756197 37.961983 139.999985
[Rope1_Seg09]
14 121.602913 0.000119 -0.000089 -89.793175 -1.359789 0.847147 121.602913
15 121.602913 0.000119 -0.000089 -89.793175 -1.359789 0.847147 121.602913
[L_mid_hand01]
14 103.859421 1.038730 8.195221 106.855484 -31.239275 -9.461397 104.187431
15 103.859421 1.038730 8.195221 106.855484 -31.239275 -9.461397 104.187431
[L_mid_hand02]
14 105.572853 -4.139662 -10.864139 -142.331345 25.752670 -28.774628 106.211075
15 105.572853 -4.139662 -10.864139 -142.331345 25.752670 -28.774628 106.211075
[L_mid_hand03]
14 104.641464 17.579376 -3.913581 -16.122810 9.734291 34.223598 106.179977
15 104.641464 17.579376 -3.913581 -16.122810 9.734291 34.223598 106.179977
[null_rope02_connect]
14 328.732849 0.000179 -0.000119 174.730820 -68.416161 73.466011 328.732849
15 328.732849 0.000179 -0.000119 149.996109 -67.013596 98.176765 328.732849
[Rope2_Seg01]
14 -0.000126 -0.000086 -0.000153 77.960091 -53.876846 79.065582 0.000216
15 -0.000127 -0.000081 -0.000153 62.975548 -58.522419 96.270111 0.000215
[Rope2_Seg02]
14 139.999741 -0.000060 -0.000119 0.101644 3.060415 -4.781199 139.999756
15 139.999741 -0.000060 -0.000119 0.561571 2.645308 -6.647871 139.999756
[Rope2_Seg03]
14 140.000107 0.000030 0.000000 0.571084 4.608449 -7.286144 140.000107
15 140.000107 0.000030 0.000000 1.776543 4.083457 -10.695996 140.000107
[Rope2_Seg04]
14 139.999802 0.000000 -0.000060 2.128493 7.165718 -11.906021 139.999802
15 139.999802 0.000000 -0.000060 7.335675 5.100734 -20.824547 139.999802
[Rope2_Seg05]
14 139.999985 -0.000060 0.000119 18.837679 6.766342 -34.112728 139.999985
15 139.999985 -0.000060 0.000119 27.505911 -2.221869 -38.817677 139.999985
[Rope2_Seg06]
14 139.999893 -0.000030 -0.000119 15.487336 5.149549 -17.910051 139.999893
15 139.999893 -0.000030 -0.000119 2.301355 8.132552 -6.985504 139.999893
[Rope2_Seg07]
14 139.999893 0.000060 -0.000060 -29.774872 22.482786 6.157301 139.999893
15 139.999893 0.000060 -0.000060 -34.523735 27.875660 10.182793 139.999893
[Rope2_Seg09]
14 121.338966 0.000089 -0.000060 33.793236 -1.359788 -0.847141 121.338966
15 121.338966 0.000089 -0.000060 33.793236 -1.359788 -0.847141 121.338966
[R_mid_hand01]
14 104.680779 11.144459 -10.335981 -41.523792 25.424656 28.595957 105.778534
15 104.680779 11.144459 -10.335981 -41.523792 25.424656 28.595957 105.778534
[R_mid_hand02]
14 104.070427 2.443552 8.231699 72.847389 -32.746803 10.013901 104.424065
15 104.070427 2.443552 8.231699 72.847389 -32.746803 10.013901 104.424065
[R_mid_hand03]
14 106.028137 -11.221827 -5.996406 -167.901306 10.259192 -37.009720 106.788818
15 106.028137 -11.221827 -5.996406 -167.901306 10.259192 -37.009720 106.788818
[spine02]
14 129.756927 0.001550 0.000119 0.001147 -1.797837 -7.854275 129.756927
15 129.756927 0.001550 0.000119 0.001147 -1.797837 -7.854275 129.756927
[spine03]
14 79.115631 0.000000 -0.000119 1.459971 -2.848092 23.765963 79.115631
15 79.115631 0.000000 -0.000119 1.459971 -2.848092 23.765965 79.115631
[pelvis]
14 169.435242 0.051022 0.000000 -0.000005 0.000003 -4.322055 169.435257
15 169.435242 0.051022 0.000000 -0.000005 0.000003 -4.322055 169.435257
[null_rope03_connect]
14 -1.257226 -2.466202 137.391083 -97.169739 74.944016 157.580383 137.418976
15 -1.257226 -2.466202 137.391083 -89.061195 72.663445 165.421051 137.418976
[null_rope04_connect]
14 -1.259640 -2.480268 -137.844437 -97.169739 74.944016 157.580383 137.872513
15 -1.259640 -2.480268 -137.844437 -89.061195 72.663445 165.421051 137.872513
[Rope3_Seg01]
14 0.000011 -0.000054 0.000066 -123.858788 -26.099907 83.637894 0.000086
15 0.000015 -0.000053 0.000071 -124.285675 -22.592060 83.388268 0.000090
[Rope3_Seg02]
14 139.999924 -0.000119 0.000060 -0.527684 -6.174948 -0.286863 139.999924
15 139.999924 -0.000119 0.000060 -0.525002 -5.290047 -0.602868 139.999924
[Rope3_Seg03]
14 139.999924 -0.000119 0.000119 -0.217026 -8.355031 -0.468455 139.999924
15 139.999924 -0.000119 0.000119 -0.322796 -6.929165 -0.860748 139.999924
[Rope3_Seg04]
14 139.999924 0.000119 0.000000 0.623643 -11.741330 -0.778404 139.999924
15 139.999924 0.000119 0.000000 0.187621 -9.448865 -1.289245 139.999924
[Rope3_Seg05]
14 139.999924 -0.000238 0.000060 4.407293 -20.623402 -1.937472 139.999924
15 139.999924 -0.000238 0.000060 2.410677 -15.638437 -2.596472 139.999924
[Rope3_Seg06]
14 139.999893 -0.000119 -0.000060 4.199524 -10.808895 0.692872 139.999893
15 139.999893 -0.000119 -0.000060 3.153919 -10.431391 -0.579421 139.999893
[Rope3_Seg07]
14 139.999771 0.000060 -0.000119 -0.496759 4.492650 1.932384 139.999771
15 139.999771 0.000060 -0.000119 0.884123 -0.208522 1.597611 139.999771
[Rope3_Seg08]
14 139.999985 -0.000060 0.000000 -0.316159 4.582870 1.706608 139.999985
15 139.999985 -0.000060 0.000000 0.944440 -0.685428 1.148431 139.999985
[Rope3_Seg09]
14 90.185997 -0.000179 -0.000060 89.793228 -1.359877 -0.847183 90.185997
15 90.185997 -0.000179 -0.000060 89.793228 -1.359877 -0.847183 90.185997
[R_rear_hand01]
14 103.366196 -6.073594 -10.757982 -161.551193 16.666374 -30.088671 104.101845
15 103.366196 -6.073594 -10.757982 -161.551193 16.666374 -30.088671 104.101845
[R_rear_hand02]
14 100.509819 12.039542 -7.992327 -34.280552 19.289745 28.875523 101.543350
15 100.509819 12.039542 -7.992327 -34.280552 19.289745 28.875523 101.543350
[R_rear_hand03]
14 101.539970 5.215704 5.435467 83.366440 -30.933914 7.284830 101.819031
15 101.539970 5.215704 5.435467 83.366440 -30.933914 7.284830 101.819031
[Rope4_Seg01]
14 -0.000023 0.000103 0.000000 64.651581 -35.973072 51.060863 0.000106
15 -0.000031 0.000102 0.000000 60.318588 -30.269943 52.967567 0.000107
[Rope4_Seg02]
14 139.999985 0.000060 0.000119 -1.413447 15.426247 2.895174 139.999985
15 139.999985 0.000060 0.000119 -0.198043 15.934782 5.284374 139.999985
[Rope4_Seg03]
14 139.999924 0.000000 -0.000238 0.333352 20.112823 4.532299 139.999924
15 139.999924 0.000000 -0.000238 0.824797 17.309340 6.093234 139.999924
[Rope4_Seg04]
14 139.999985 0.000000 0.000119 2.966076 23.208666 7.013233 139.999985
15 139.999985 0.000000 0.000119 1.565714 17.238207 7.858644 139.999985
[Rope4_Seg05]
14 139.999802 -0.000060 -0.000119 3.062835 14.329239 3.758033 139.999802
15 139.999802 -0.000060 -0.000119 1.068436 9.598629 3.655600 139.999802
[Rope4_Seg06]
14 139.999924 0.000000 0.000060 2.658062 3.620221 -1.131920 139.999924
15 139.999924 0.000000 0.000060 1.962197 3.914797 -0.846901 139.999924
[Rope4_Seg07]
14 139.999802 0.000000 0.000000 2.946185 -2.869469 -4.859093 139.999802
15 139.999802 0.000000 0.000000 3.712275 0.858026 -5.024505 139.999802
[Rope4_Seg08]
14 139.999924 0.000000 0.000119 1.012406 -4.514394 -5.772412 139.999924
15 139.999924 0.000000 0.000119 1.870109 1.134301 -4.784365 139.999924
[Rope4_Seg09]
14 90.185791 0.000060 0.000060 -135.617828 2.228885 0.850567 90.185791
15 90.185791 0.000060 0.000060 -135.617828 2.228885 0.850567 90.185791
[L_rear_hand01]
14 101.696655 -8.392275 -7.654577 -34.454281 -18.946800 151.655121 102.329041
15 101.696655 -8.392275 -7.654577 -34.454281 -18.946800 151.655121 102.329041
[L_rear_hand02]
14 102.726799 -1.568258 5.773216 83.407906 30.330435 172.796509 102.900848
15 102.726799 -1.568258 5.773216 83.407906 30.330435 172.796509 102.900848
[L_rear_hand03]
14 104.552910 9.721220 -10.420293 -161.379868 -16.473232 -150.512238 105.519653
15 104.552910 9.721220 -10.420293 -161.379868 -16.473232 -150.512238 105.519653
